#!OML:ASF F:\VICON\USERDATA\INSTALL\rory3\rory3.ASF
:FULLY-SPECIFIED
:DEGREES
165
root 1.05026 15.3193 17.7346 -169.665 6.95081 -173.519
lowerback 5.94069 3.52429 -1.11849
upperback -1.13961 4.57838 -1.16872
thorax -4.49724 2.288 -1.02936
lowerneck -21.8397 -1.6504 1.2388
upperneck 28.1837 -6.75179 7.29195
head 13.445 -2.31079 1.32333
rclavicle -2.88238e-014 3.18055e-015
rhumerus -24.7951 25.0231 -67.7864
rradius 105.385
rwrist -86.2756
rhand 32.188 -1.8139
rfingers 7.12502
rthumb 55.6625 -19.4622
lclavicle -2.88238e-014 3.18055e-015
lhumerus -42.7225 11.4066 75.7281
lradius 117.689
lwrist 71.5716
lhand 43.0062 23.001
lfingers 7.12502
lthumb 64.8354 30.4495
rfemur -32.5289 -2.74647 33.0802
rtibia 96.5446
rfoot 42.963 -22.8814
rtoes 23.23
lfemur -60.6485 0.804028 -17.0752
ltibia 68.6047
lfoot -9.12344 4.84079
ltoes -22.7093
166
root 1.04126 15.2735 17.5266 -170.93 6.82804 -173.928
lowerback 5.75775 2.94431 -1.92299
upperback -0.714842 3.76684 -1.06002
thorax -4.01656 1.90834 -0.364782
lowerneck -19.4587 -1.02608 1.95728
upperneck 27.3745 -6.01697 7.29641
head 12.5695 -2.04908 1.33321
rclavicle 7.15625e-014 1.90833e-014
rhumerus -20.587 24.3114 -62.8681
rradius 103.664
rwrist -87.9429
rhand 34.5098 -4.77229
rfingers 7.12502
rthumb 57.7093 -20.7517
lclavicle 7.15625e-014 1.90833e-014
lhumerus -35.2983 10.2167 75.9043
lradius 118.396
lwrist 69.5969
lhand 44.8146 21.6312
lfingers 7.12502
lthumb 66.2452 26.5883
rfemur -36.2482 -3.78265 32.9249
rtibia 102.604
rfoot 48.0502 -16.8832
rtoes 18.2366
lfemur -58.1431 1.07838 -18.0825
ltibia 68.2756
lfoot -11.6647 4.45089
ltoes -20.457
167
root 1.02834 15.2352 17.3294 -172.164 6.31609 -174.519
lowerback 6.79427 2.12148 -3.02494
upperback 0.233827 2.60729 -0.810303
thorax -3.66327 1.35896 0.599093
lowerneck -22.2281 -1.94551 3.28345
upperneck 28.6022 -4.78208 6.14281
head 13.5153 -0.326383 1.13426
rclavicle -8.74653e-015 5.32743e-014
rhumerus -13.9154 22.9476 -57.2271
rradius 101.327
rwrist -88.3993
rhand 31.2488 -4.39708
rfingers 7.12502
rthumb 54.826 -22.6609
lclavicle -8.74653e-015 5.32743e-014
lhumerus -26.0332 9.72703 76.1837
lradius 119.205
lwrist 68.7562
lhand 44.497 21.8447
lfingers 7.12502
lthumb 66.0012 27.2613
rfemur -40.3174 -5.25727 32.6496
rtibia 108.521
rfoot 51.8406 -13.706
rtoes 21.1826
lfemur -55.8895 0.822237 -19.3147
ltibia 68.1351
lfoot -13.9292 4.83066
ltoes -18.8639
168
root 1.01538 15.193 17.1502 -173.277 5.65274 -175.662
lowerback 7.76181 1.56712 -4.41608
upperback 0.130648 1.71355 -0.906208
thorax -4.32117 0.956669 1.34124
lowerneck -20.8558 -1.65679 3.8015
upperneck 28.5397 -4.31651 6.06451
head 13.1785 -0.0719038 1.10426
rclavicle -1.5704e-014 -3.18055e-015
rhumerus -9.91119 21.5664 -52.8095
rradius 98.6407
rwrist -87.3396
rhand 31.4535 -3.96156
rfingers 7.12502
rthumb 55.0087 -22.0939
lclavicle -1.5704e-014 -3.18055e-015
lhumerus -19.2305 8.46102 75.7814
lradius 119.525
lwrist 68.7979
lhand 42.908 23.8064
lfingers 7.12502
lthumb 64.7575 31.3819
rfemur -45.0965 -6.94683 31.8739
rtibia 114.502
rfoot 50.1269 -18.9311
rtoes 35.7198
lfemur -53.9537 -0.149091 -20.9598
ltibia 68.1323
lfoot -15.7851 5.74115
ltoes -16.8016
169
root 1.0083 15.1486 16.9771 -174.315 5.14135 -176.394
lowerback 8.70945 1.12708 -5.64532
upperback 0.438721 0.993429 -0.689952
thorax -4.51498 0.635718 2.32835
lowerneck -21.1861 -1.2369 4.02845
upperneck 28.7193 -3.75921 5.78599
head 13.3001 0.157848 1.05468
rclavicle -6.55989e-015 4.6118e-014
rhumerus -5.01364 19.7213 -47.8753
rradius 95.5636
rwrist -86.301
rhand 30.7383 -3.81475
rfingers 7.12502
rthumb 54.3695 -22.3998
lclavicle -6.55989e-015 4.6118e-014
lhumerus -11.0887 7.29309 75.5434
lradius 119.028
lwrist 67.5483
lhand 46.6229 22.1397
lfingers 7.12502
lthumb 67.6011 24.2869
rfemur -50.2208 -8.3351 31.7653
rtibia 120.128
rfoot 48.9324 -23.9494
rtoes 45.9294
lfemur -52.2061 -1.2795 -21.9089
ltibia 68.2171
lfoot -17.4101 6.50672
ltoes -14.1354
170
root 0.995484 15.1053 16.8131 -175.274 4.61103 -177.016
lowerback 9.70818 0.688876 -6.61927
upperback 0.680322 0.275207 -0.493969
thorax -4.7667 0.314316 3.16888
lowerneck -21.2172 -0.756221 4.26687
upperneck 28.6378 -3.07969 5.4719
head 13.2502 0.414306 1.00284
rclavicle 1.45113e-014 3.4191e-014
rhumerus -0.774807 17.6526 -43.4618
rradius 92.4223
rwrist -85.9223
rhand 29.0833 -3.50001
rfingers 7.12502
rthumb 52.881 -23.0675
lclavicle 1.45113e-014 3.4191e-014
lhumerus -3.0584 6.08044 74.8731
lradius 120.782
lwrist 67.2986
lhand 47.3227 23.8394
lfingers 7.12502
lthumb 68.1092 24.8042
rfemur -55.8455 -9.52731 31.884
rtibia 125.434
rfoot 50.1108 -24.0027
rtoes 44.1932
lfemur -50.6798 -2.50065 -22.7138
ltibia 68.4094
lfoot -18.5535 7.21067
ltoes -12.6808
171
root 0.969627 15.1379 16.6628 -176.078 3.76412 -177.802
lowerback 11.0353 0.155496 -7.25427
upperback 0.616564 -0.606654 -0.569879
thorax -5.47977 -0.0723573 3.57904
lowerneck -20.6836 -0.275293 4.59045
upperneck 28.2026 -2.40807 5.34009
head 12.9459 0.686976 0.995993
rclavicle 4.57205e-015 3.97569e-015
rhumerus 2.1428 15.4713 -39.8189
rradius 88.8861
rwrist -86.5492
rhand 28.542 -3.23214
rfingers 7.12502
rthumb 52.3915 -23.1023
lclavicle 4.57205e-015 3.97569e-015
lhumerus 3.33116 4.21506 73.3587
lradius 120.632
lwrist 66.7261
lhand 43.1501 23.0496
lfingers 7.12502
lthumb 64.9493 30.3106
rfemur -61.4573 -11.0507 31.5399
rtibia 129.692
rfoot 53.0591 -21.2723
rtoes 37.659
lfemur -48.9156 -3.9077 -23.8098
ltibia 68.2225
lfoot -19.2077 7.87469
ltoes -12.3131
172
root 0.950831 15.0765 16.5337 -176.857 2.67973 -178.89
lowerback 12.5169 -0.362362 -8.4794
upperback 0.66483 -1.56187 -0.539145
thorax -6.11466 -0.469622 4.47996
lowerneck -20.4956 0.184495 4.68721
upperneck 27.6167 -1.74262 5.11925
head 12.6571 0.899314 0.983504
rclavicle 6.95746e-015 -3.81667e-014
rhumerus 4.84592 13.2986 -36.0595
rradius 85.1844
rwrist -88.0189
rhand 28.6612 -3.18175
rfingers 7.12502
rthumb 52.4994 -22.986
lclavicle 6.95746e-015 -3.81667e-014
lhumerus 10.1987 3.06348 72.0031
lradius 120.126
lwrist 66.1301
lhand 44.0658 23.8339
lfingers 7.12502
lthumb 65.6674 29.8589
rfemur -67.8169 -12.5508 30.9781
rtibia 134.324
rfoot 55.3238 -18.8799
rtoes 32.017
lfemur -47.8089 -5.39928 -25.3126
ltibia 68.547
lfoot -19.5597 8.56703
ltoes -12.8882
173
root 0.947707 15.0144 16.4135 -177.542 1.66625 -180.876
lowerback 14.0508 -0.717213 -10.9892
upperback 0.810809 -2.519 -0.603457
thorax -6.57709 -0.817113 6.03505
lowerneck -20.9315 0.653032 4.88687
upperneck 27.1806 -1.10424 4.56358
head 12.5572 1.06563 0.827063
rclavicle 8.94531e-015 -9.54166e-015
rhumerus 7.57233 10.9512 -32.3957
rradius 81.6011
rwrist -89.6726
rhand 28.5301 -3.37087
rfingers 7.12502
rthumb 52.3807 -23.2476
lclavicle 8.94531e-015 -9.54166e-015
lhumerus 17.0652 2.11327 70.1233
lradius 119.355
lwrist 64.9427
lhand 45.5144 23.4359
lfingers 7.12502
lthumb 66.7768 27.3458
rfemur -75.8304 -14.1038 29.3495
rtibia 138.45
rfoot 59.6902 -12.2221
rtoes 23.0732
lfemur -46.682 -6.75423 -27.7414
ltibia 68.5876
lfoot -19.8409 9.22456
ltoes -13.3142
174
root 0.923162 15.0347 16.2601 -176.495 0.439246 -179.652
lowerback 13.1684 -1.49622 -10.0103
upperback 0.919036 -3.28204 0.251222
thorax -5.8307 -1.28007 6.49363
lowerneck -21.1541 1.04568 4.92918
upperneck 26.4308 -0.463549 3.8028
head 12.2915 1.16625 0.611173
rclavicle 1.21259e-014 2.38542e-015
rhumerus 10.2335 8.08068 -29.1126
rradius 77.6656
rwrist -90.6305
rhand 28.6463 -3.76612
rfingers 7.12502
rthumb 52.4858 -23.5787
lclavicle 1.21259e-014 2.38542e-015
lhumerus 23.5159 1.72538 68.1449
lradius 117.27
lwrist 64.4132
lhand 46.3177 23.8797
lfingers 7.12502
lthumb 67.3764 26.5254
rfemur -84.141 -12.3363 31.7559
rtibia 140.531
rfoot 62.2374 -11.1505
rtoes 23.0807
lfemur -47.3953 -7.77811 -26.5337
ltibia 68.7124
lfoot -20.0562 9.09596
ltoes -12.8042
